<?xml version="1.0" encoding="UTF-8" standalone="no"?>
<svg width="800" height="500" viewBox="0 0 800 500" xmlns="http://www.w3.org/2000/svg">
  <!-- Background -->
  <rect width="800" height="500" fill="#e8f4f8" />
  
  <!-- Grass -->
  <rect width="800" height="180" y="320" fill="#a0d468" />
  
  <!-- Title -->
  <text x="400" y="40" font-family="Arial" font-size="24" text-anchor="middle" font-weight="bold" fill="#333">Bramhollow Condominium Association</text>
  <text x="400" y="70" font-family="Arial" font-size="16" text-anchor="middle" fill="#555">Est. 1985</text>
  
  <!-- Half-moon Driveway and Parking -->
  <path d="M100,430 Q400,290 700,430" stroke="#a8a8a8" stroke-width="80" fill="none" />
  
  <!-- Parking Spaces - Top Row -->
  <rect x="145" y="310" width="20" height="30" fill="#d8d8d8" />
  <rect x="175" y="305" width="20" height="30" fill="#d8d8d8" />
  <rect x="205" y="300" width="20" height="30" fill="#d8d8d8" />
  <rect x="235" y="295" width="20" height="30" fill="#d8d8d8" />
  <rect x="265" y="290" width="20" height="30" fill="#d8d8d8" />
  <rect x="295" y="288" width="20" height="30" fill="#d8d8d8" />
  <rect x="325" y="286" width="20" height="30" fill="#d8d8d8" />
  <rect x="355" y="285" width="20" height="30" fill="#d8d8d8" />
  <rect x="385" y="285" width="20" height="30" fill="#d8d8d8" />
  <rect x="415" y="286" width="20" height="30" fill="#d8d8d8" />
  <rect x="445" y="288" width="20" height="30" fill="#d8d8d8" />
  <rect x="475" y="290" width="20" height="30" fill="#d8d8d8" />
  <rect x="505" y="295" width="20" height="30" fill="#d8d8d8" />
  <rect x="535" y="300" width="20" height="30" fill="#d8d8d8" />
  <rect x="565" y="305" width="20" height="30" fill="#d8d8d8" />
  <rect x="595" y="310" width="20" height="30" fill="#d8d8d8" />
  
  <!-- Parking Spaces - Bottom Row -->
  <rect x="155" y="390" width="20" height="30" fill="#d8d8d8" />
  <rect x="185" y="395" width="20" height="30" fill="#d8d8d8" />
  <rect x="215" y="400" width="20" height="30" fill="#d8d8d8" />
  <rect x="245" y="405" width="20" height="30" fill="#d8d8d8" />
  <rect x="275" y="407" width="20" height="30" fill="#d8d8d8" />
  <rect x="305" y="409" width="20" height="30" fill="#d8d8d8" />
  <rect x="335" y="410" width="20" height="30" fill="#d8d8d8" />
  <rect x="365" y="410" width="20" height="30" fill="#d8d8d8" />
  <rect x="395" y="410" width="20" height="30" fill="#d8d8d8" />
  <rect x="425" y="409" width="20" height="30" fill="#d8d8d8" />
  <rect x="455" y="407" width="20" height="30" fill="#d8d8d8" />
  <rect x="485" y="405" width="20" height="30" fill="#d8d8d8" />
  <rect x="515" y="400" width="20" height="30" fill="#d8d8d8" />
  <rect x="545" y="395" width="20" height="30" fill="#d8d8d8" />
  <rect x="575" y="390" width="20" height="30" fill="#d8d8d8" />
  <rect x="605" y="385" width="20" height="30" fill="#d8d8d8" />
  <rect x="635" y="375" width="20" height="30" fill="#d8d8d8" />
  
  <!-- Entrance and Exit -->
  <path d="M70,430 L120,430" stroke="#888888" stroke-width="15" fill="none" />
  <text x="95" y="455" font-family="Arial" font-size="10" text-anchor="middle" fill="#333">ENTRANCE</text>
  <path d="M680,430 L730,430" stroke="#888888" stroke-width="15" fill="none" />
  <text x="705" y="455" font-family="Arial" font-size="10" text-anchor="middle" fill="#333">EXIT</text>
  
  <!-- Front Row Buildings -->
  
  <!-- Building 1 (Front Left) -->
  <g transform="translate(60, 160)">
    <!-- Building Base -->
    <rect x="0" y="40" width="100" height="100" fill="#d9c5a0" />
    <!-- Roof -->
    <polygon points="0,40 50,10 100,40" fill="#8B4513" />
    <!-- Door -->
    <rect x="40" y="110" width="20" height="30" fill="#6d4c41" />
    <!-- Windows -->
    <rect x="15" y="55" width="20" height="20" fill="#b3e5fc" />
    <rect x="65" y="55" width="20" height="20" fill="#b3e5fc" />
    <rect x="15" y="85" width="20" height="20" fill="#b3e5fc" />
    <rect x="65" y="85" width="20" height="20" fill="#b3e5fc" />
  </g>
  
  <!-- Building 2 (Front Middle) -->
  <g transform="translate(250, 160)">
    <!-- Building Base -->
    <rect x="0" y="40" width="100" height="100" fill="#d9c5a0" />
    <!-- Roof -->
    <polygon points="0,40 50,10 100,40" fill="#8B4513" />
    <!-- Door -->
    <rect x="40" y="110" width="20" height="30" fill="#6d4c41" />
    <!-- Windows -->
    <rect x="15" y="55" width="20" height="20" fill="#b3e5fc" />
    <rect x="65" y="55" width="20" height="20" fill="#b3e5fc" />
    <rect x="15" y="85" width="20" height="20" fill="#b3e5fc" />
    <rect x="65" y="85" width="20" height="20" fill="#b3e5fc" />
  </g>
  
  <!-- Building 3 (Front Right) -->
  <g transform="translate(440, 160)">
    <!-- Building Base -->
    <rect x="0" y="40" width="100" height="100" fill="#d9c5a0" />
    <!-- Roof -->
    <polygon points="0,40 50,10 100,40" fill="#8B4513" />
    <!-- Door -->
    <rect x="40" y="110" width="20" height="30" fill="#6d4c41" />
    <!-- Windows -->
    <rect x="15" y="55" width="20" height="20" fill="#b3e5fc" />
    <rect x="65" y="55" width="20" height="20" fill="#b3e5fc" />
    <rect x="15" y="85" width="20" height="20" fill="#b3e5fc" />
    <rect x="65" y="85" width="20" height="20" fill="#b3e5fc" />
  </g>
  
  <!-- Back Row Buildings -->
  
  <!-- Building 4 (Back Left) -->
  <g transform="translate(630, 160)">
    <!-- Building Base -->
    <rect x="0" y="40" width="100" height="100" fill="#d9c5a0" />
    <!-- Roof -->
    <polygon points="0,40 50,10 100,40" fill="#8B4513" />
    <!-- Door -->
    <rect x="40" y="110" width="20" height="30" fill="#6d4c41" />
    <!-- Windows -->
    <rect x="15" y="55" width="20" height="20" fill="#b3e5fc" />
    <rect x="65" y="55" width="20" height="20" fill="#b3e5fc" />
    <rect x="15" y="85" width="20" height="20" fill="#b3e5fc" />
    <rect x="65" y="85" width="20" height="20" fill="#b3e5fc" />
  </g>
  
  <!-- Building 5 (Back Middle) -->
  <g transform="translate(150, 90)">
    <!-- Building Base -->
    <rect x="0" y="40" width="100" height="100" fill="#d9c5a0" />
    <!-- Roof -->
    <polygon points="0,40 50,10 100,40" fill="#8B4513" />
    <!-- Door -->
    <rect x="40" y="110" width="20" height="30" fill="#6d4c41" />
    <!-- Windows -->
    <rect x="15" y="55" width="20" height="20" fill="#b3e5fc" />
    <rect x="65" y="55" width="20" height="20" fill="#b3e5fc" />
    <rect x="15" y="85" width="20" height="20" fill="#b3e5fc" />
    <rect x="65" y="85" width="20" height="20" fill="#b3e5fc" />
  </g>
  
  <!-- Building 6 (Back Right) -->
  <g transform="translate(540, 90)">
    <!-- Building Base -->
    <rect x="0" y="40" width="100" height="100" fill="#d9c5a0" />
    <!-- Roof -->
    <polygon points="0,40 50,10 100,40" fill="#8B4513" />
    <!-- Door -->
    <rect x="40" y="110" width="20" height="30" fill="#6d4c41" />
    <!-- Windows -->
    <rect x="15" y="55" width="20" height="20" fill="#b3e5fc" />
    <rect x="65" y="55" width="20" height="20" fill="#b3e5fc" />
    <rect x="15" y="85" width="20" height="20" fill="#b3e5fc" />
    <rect x="65" y="85" width="20" height="20" fill="#b3e5fc" />
  </g>
  
  <!-- Trees -->
  <g transform="translate(30, 180)">
    <ellipse cx="10" cy="20" rx="20" ry="20" fill="#5cb85c" />
    <rect x="8" y="20" width="4" height="20" fill="#8B4513" />
  </g>
  
  <g transform="translate(750, 250)">
    <ellipse cx="10" cy="20" rx="25" ry="25" fill="#5cb85c" />
    <rect x="8" y="20" width="4" height="30" fill="#8B4513" />
  </g>
  
  <g transform="translate(360, 90)">
    <ellipse cx="10" cy="20" rx="15" ry="15" fill="#5cb85c" />
    <rect x="8" y="20" width="4" height="20" fill="#8B4513" />
  </g>
  
  <!-- Walkways -->
  <path d="M100,300 L100,260" stroke="#e0e0e0" stroke-width="10" fill="none" />
  <path d="M300,300 L300,260" stroke="#e0e0e0" stroke-width="10" fill="none" />
  <path d="M500,300 L500,260" stroke="#e0e0e0" stroke-width="10" fill="none" />
  <path d="M200,190 L200,150" stroke="#e0e0e0" stroke-width="10" fill="none" />
  <path d="M600,190 L600,150" stroke="#e0e0e0" stroke-width="10" fill="none" />
</svg>