<?xml version="1.0" encoding="UTF-8" standalone="no"?>
<svg width="800" height="500" viewBox="0 0 800 500" xmlns="http://www.w3.org/2000/svg">
  <!-- Background -->
  <rect width="800" height="500" fill="#e8f4f8" />
  
  <!-- Grass -->
  <rect width="800" height="180" y="320" fill="#a0d468" />
  
  <!-- Driveway and Parking -->
  <rect x="50" y="360" width="700" height="100" rx="2" fill="#a8a8a8" />
  <rect x="70" y="380" width="20" height="60" fill="#d8d8d8" />
  <rect x="110" y="380" width="20" height="60" fill="#d8d8d8" />
  <rect x="150" y="380" width="20" height="60" fill="#d8d8d8" />
  <rect x="190" y="380" width="20" height="60" fill="#d8d8d8" />
  <rect x="230" y="380" width="20" height="60" fill="#d8d8d8" />
  <rect x="270" y="380" width="20" height="60" fill="#d8d8d8" />
  <rect x="310" y="380" width="20" height="60" fill="#d8d8d8" />
  <rect x="350" y="380" width="20" height="60" fill="#d8d8d8" />
  <rect x="390" y="380" width="20" height="60" fill="#d8d8d8" />
  <rect x="430" y="380" width="20" height="60" fill="#d8d8d8" />
  <rect x="470" y="380" width="20" height="60" fill="#d8d8d8" />
  <rect x="510" y="380" width="20" height="60" fill="#d8d8d8" />
  <rect x="550" y="380" width="20" height="60" fill="#d8d8d8" />
  <rect x="590" y="380" width="20" height="60" fill="#d8d8d8" />
  <rect x="630" y="380" width="20" height="60" fill="#d8d8d8" />
  <rect x="670" y="380" width="20" height="60" fill="#d8d8d8" />
  <rect x="710" y="380" width="20" height="60" fill="#d8d8d8" />
  
  <!-- First Row Buildings -->
  
  <!-- Building 1 -->
  <g transform="translate(60, 100)">
    <!-- Building Base -->
    <rect x="0" y="40" width="100" height="180" fill="#d9c5a0" />
    <!-- Roof -->
    <polygon points="0,40 50,0 100,40" fill="#8B4513" />
    <!-- Door -->
    <rect x="40" y="180" width="20" height="40" fill="#6d4c41" />
    <!-- Windows -->
    <rect x="15" y="70" width="20" height="20" fill="#b3e5fc" />
    <rect x="65" y="70" width="20" height="20" fill="#b3e5fc" />
    <rect x="15" y="130" width="20" height="20" fill="#b3e5fc" />
    <rect x="65" y="130" width="20" height="20" fill="#b3e5fc" />
  </g>
  
  <!-- Building 2 -->
  <g transform="translate(200, 100)">
    <!-- Building Base -->
    <rect x="0" y="40" width="100" height="180" fill="#d9c5a0" />
    <!-- Roof -->
    <polygon points="0,40 50,0 100,40" fill="#8B4513" />
    <!-- Door -->
    <rect x="40" y="180" width="20" height="40" fill="#6d4c41" />
    <!-- Windows -->
    <rect x="15" y="70" width="20" height="20" fill="#b3e5fc" />
    <rect x="65" y="70" width="20" height="20" fill="#b3e5fc" />
    <rect x="15" y="130" width="20" height="20" fill="#b3e5fc" />
    <rect x="65" y="130" width="20" height="20" fill="#b3e5fc" />
  </g>
  
  <!-- Building 3 -->
  <g transform="translate(340, 100)">
    <!-- Building Base -->
    <rect x="0" y="40" width="100" height="180" fill="#d9c5a0" />
    <!-- Roof -->
    <polygon points="0,40 50,0 100,40" fill="#8B4513" />
    <!-- Door -->
    <rect x="40" y="180" width="20" height="40" fill="#6d4c41" />
    <!-- Windows -->
    <rect x="15" y="70" width="20" height="20" fill="#b3e5fc" />
    <rect x="65" y="70" width="20" height="20" fill="#b3e5fc" />
    <rect x="15" y="130" width="20" height="20" fill="#b3e5fc" />
    <rect x="65" y="130" width="20" height="20" fill="#b3e5fc" />
  </g>
  
  <!-- Second Row Buildings -->
  
  <!-- Building 4 -->
  <g transform="translate(480, 100)">
    <!-- Building Base -->
    <rect x="0" y="40" width="100" height="180" fill="#d9c5a0" />
    <!-- Roof -->
    <polygon points="0,40 50,0 100,40" fill="#8B4513" />
    <!-- Door -->
    <rect x="40" y="180" width="20" height="40" fill="#6d4c41" />
    <!-- Windows -->
    <rect x="15" y="70" width="20" height="20" fill="#b3e5fc" />
    <rect x="65" y="70" width="20" height="20" fill="#b3e5fc" />
    <rect x="15" y="130" width="20" height="20" fill="#b3e5fc" />
    <rect x="65" y="130" width="20" height="20" fill="#b3e5fc" />
  </g>
  
  <!-- Building 5 -->
  <g transform="translate(620, 100)">
    <!-- Building Base -->
    <rect x="0" y="40" width="100" height="180" fill="#d9c5a0" />
    <!-- Roof -->
    <polygon points="0,40 50,0 100,40" fill="#8B4513" />
    <!-- Door -->
    <rect x="40" y="180" width="20" height="40" fill="#6d4c41" />
    <!-- Windows -->
    <rect x="15" y="70" width="20" height="20" fill="#b3e5fc" />
    <rect x="65" y="70" width="20" height="20" fill="#b3e5fc" />
    <rect x="15" y="130" width="20" height="20" fill="#b3e5fc" />
    <rect x="65" y="130" width="20" height="20" fill="#b3e5fc" />
  </g>
  
  <!-- Building 6 (slightly hidden) -->
  <g transform="translate(140, 170)">
    <!-- Building Base -->
    <rect x="0" y="40" width="100" height="110" fill="#d9c5a0" />
    <!-- Roof -->
    <polygon points="0,40 50,0 100,40" fill="#8B4513" />
    <!-- Door -->
    <rect x="40" y="110" width="20" height="40" fill="#6d4c41" />
    <!-- Windows -->
    <rect x="15" y="70" width="20" height="20" fill="#b3e5fc" />
    <rect x="65" y="70" width="20" height="20" fill="#b3e5fc" />
  </g>
  
  <!-- Trees -->
  <g transform="translate(30, 180)">
    <ellipse cx="10" cy="20" rx="20" ry="20" fill="#5cb85c" />
    <rect x="8" y="20" width="4" height="20" fill="#8B4513" />
  </g>
  
  <g transform="translate(400, 280)">
    <ellipse cx="10" cy="20" rx="15" ry="15" fill="#5cb85c" />
    <rect x="8" y="20" width="4" height="20" fill="#8B4513" />
  </g>
  
  <g transform="translate(750, 250)">
    <ellipse cx="10" cy="20" rx="25" ry="25" fill="#5cb85c" />
    <rect x="8" y="20" width="4" height="30" fill="#8B4513" />
  </g>
  
  <!-- Walkways -->
  <rect x="100" y="320" width="20" height="40" fill="#e0e0e0" />
  <rect x="240" y="320" width="20" height="40" fill="#e0e0e0" />
  <rect x="380" y="320" width="20" height="40" fill="#e0e0e0" />
  <rect x="520" y="320" width="20" height="40" fill="#e0e0e0" />
  <rect x="660" y="320" width="20" height="40" fill="#e0e0e0" />
  
  <!-- Additional Parking Details -->
  <line x1="50" y1="440" x2="750" y2="440" style="stroke:#ffffff;stroke-width:2" />
  <line x1="90" y1="380" x2="90" y2="440" style="stroke:#ffffff;stroke-width:1" />
  <line x1="130" y1="380" x2="130" y2="440" style="stroke:#ffffff;stroke-width:1" />
  <line x1="170" y1="380" x2="170" y2="440" style="stroke:#ffffff;stroke-width:1" />
  <line x1="210" y1="380" x2="210" y2="440" style="stroke:#ffffff;stroke-width:1" />
  <line x1="250" y1="380" x2="250" y2="440" style="stroke:#ffffff;stroke-width:1" />
  <line x1="290" y1="380" x2="290" y2="440" style="stroke:#ffffff;stroke-width:1" />
  <line x1="330" y1="380" x2="330" y2="440" style="stroke:#ffffff;stroke-width:1" />
  <line x1="370" y1="380" x2="370" y2="440" style="stroke:#ffffff;stroke-width:1" />
  <line x1="410" y1="380" x2="410" y2="440" style="stroke:#ffffff;stroke-width:1" />
  <line x1="450" y1="380" x2="450" y2="440" style="stroke:#ffffff;stroke-width:1" />
  <line x1="490" y1="380" x2="490" y2="440" style="stroke:#ffffff;stroke-width:1" />
  <line x1="530" y1="380" x2="530" y2="440" style="stroke:#ffffff;stroke-width:1" />
  <line x1="570" y1="380" x2="570" y2="440" style="stroke:#ffffff;stroke-width:1" />
  <line x1="610" y1="380" x2="610" y2="440" style="stroke:#ffffff;stroke-width:1" />
  <line x1="650" y1="380" x2="650" y2="440" style="stroke:#ffffff;stroke-width:1" />
  <line x1="690" y1="380" x2="690" y2="440" style="stroke:#ffffff;stroke-width:1" />
  <line x1="730" y1="380" x2="730" y2="440" style="stroke:#ffffff;stroke-width:1" />

  <!-- Title -->
  <text x="400" y="40" font-family="Arial" font-size="24" text-anchor="middle" font-weight="bold" fill="#333">Bramhollow Condominium Association</text>
  <text x="400" y="70" font-family="Arial" font-size="16" text-anchor="middle" fill="#555">Est. 1985</text>
</svg>